<svg xmlns="http://www.w3.org/2000/svg" viewBox="0 0 196.06 45.71"><title>Global Open Data Index</title><rect x="31.1" y="5.81" width="12.13" height="1.47" transform="translate(9.68 32.4) rotate(-53.24)"/><rect x="29.64" y="6.65" width="5.84" height="1.47" transform="translate(11.43 33.24) rotate(-63.53)"/><rect x="25.45" y="3.88" width="9.19" height="1.47" transform="translate(17.23 32.18) rotate(-73.79)"/><rect x="23.52" y="4.88" width="5.84" height="1.47" transform="translate(18.14 31.33) rotate(-84.09)"/><rect x="22.48" y="1.94" width="1.47" height="6.55" transform="matrix(1, -0.08, 0.08, 1, -0.33, 1.79)"/><rect x="19.52" y="4.51" width="1.47" height="4.48" transform="matrix(0.97, -0.25, 0.25, 0.97, -1.05, 5.35)"/><rect x="16.94" y="6.96" width="1.47" height="3" transform="translate(-1.92 8.24) rotate(-24.95)"/><rect x="14.92" y="10.09" width="1.47" height="1.18" transform="translate(-3.3 10.99) rotate(-35.24)"/><rect x="11.5" y="8.8" width="1.47" height="4.82" transform="translate(-4.34 12.08) rotate(-45.52)"/><polygon points="12.66 14.36 7.35 10.71 6.52 11.93 11.84 15.57 12.66 14.36"/><rect x="8.55" y="14.73" width="1.47" height="3.66" transform="translate(-9.62 18.33) rotate(-66.08)"/><rect x="4.4" y="13.53" width="1.47" height="10.21" transform="translate(-14.19 19.23) rotate(-76.38)"/><rect x="5.26" y="18.56" width="1.47" height="7.41" transform="translate(-16.58 26.96) rotate(-86.66)"/><rect x="2.58" y="24.86" width="7.22" height="1.47" transform="translate(-3.05 0.94) rotate(-6.95)"/><rect x="8.7" y="27.29" width="1.68" height="1.47" transform="translate(-7.88 4.09) rotate(-17.24)"/><rect x="5.62" y="30.92" width="6.08" height="1.47" transform="translate(-13.65 7.59) rotate(-27.53)"/><rect x="6.93" y="33.78" width="6.55" height="1.47" transform="translate(-19.01 13.51) rotate(-37.81)"/><rect x="9.29" y="36.11" width="6.39" height="1.47" transform="translate(-23.27 21.53) rotate(-48.09)"/><rect x="14.52" y="36.59" width="2.95" height="1.47" transform="translate(-24.17 31.38) rotate(-58.39)"/><rect x="15.24" y="39.2" width="5.74" height="1.47" transform="translate(-25.67 42.28) rotate(-68.66)"/><rect x="18.59" y="39.86" width="5.27" height="1.47" transform="translate(-22.68 53.66) rotate(-78.97)"/><rect x="22.53" y="39.38" width="3.67" height="1.47" transform="translate(-16.07 63.95) rotate(-89.25)"/><rect x="26.91" y="38.03" width="1.47" height="7.09" transform="translate(-6.5 5.15) rotate(-9.52)"/><rect x="29.64" y="37.28" width="1.46" height="4.28" transform="translate(-11.56 12.63) rotate(-19.81)"/><polygon points="31.44 36.65 36.76 45.71 38.02 44.98 32.71 35.91 31.44 36.65"/><polygon points="35.6 35.06 34.79 34.23 33.73 35.24 34.54 36.07 35.6 35.06"/><rect x="37.23" y="31.96" width="1.47" height="4.72" transform="translate(-12.65 41.93) rotate(-50.67)"/><rect x="38.77" y="29.52" width="1.47" height="4.27" transform="translate(-7.34 50.82) rotate(-60.95)"/><rect x="38.9" y="27.52" width="1.47" height="1.9" transform="translate(-0.07 56.85) rotate(-71.25)"/><rect x="41.45" y="23.13" width="1.47" height="5.71" transform="translate(10.26 63.88) rotate(-81.53)"/><rect x="39.51" y="22.11" width="3.63" height="1.47" transform="translate(-0.7 1.32) rotate(-1.81)"/><rect x="39.14" y="19.03" width="4.58" height="1.47" transform="translate(-3.22 9.13) rotate(-12.1)"/><rect x="38.28" y="16.35" width="3.13" height="1.47" transform="translate(-3.5 16.46) rotate(-22.39)"/><rect x="36.45" y="12.12" width="9.09" height="1.47" transform="translate(-0.45 24.17) rotate(-32.68)"/><rect x="35.31" y="11.92" width="1.58" height="1.47" transform="translate(1.05 27.99) rotate(-42.95)"/><polygon points="30.39 16.24 29.82 15.77 29.44 16.23 30 16.7 30.11 16.56 30.39 16.24"/><rect x="27.09" y="15.77" width="2.23" height="0.73" transform="translate(1.18 34.17) rotate(-63.49)"/><rect x="26.34" y="14.79" width="1.29" height="0.73" transform="translate(4.9 36.84) rotate(-73.8)"/><rect x="24.33" y="14.96" width="2.22" height="0.73" transform="translate(7.57 39.05) rotate(-84.09)"/><rect x="23.61" y="14.2" width="0.73" height="2.05" transform="translate(-1.09 1.88) rotate(-4.39)"/><rect x="22.23" y="14.43" width="0.73" height="2.59" transform="translate(-3.25 6.23) rotate(-14.67)"/><rect x="20.99" y="14.89" width="0.73" height="3.02" transform="translate(-4.93 10.55) rotate(-24.98)"/><polygon points="19 16.07 21.23 19.26 21.83 18.84 19.59 15.65 19 16.07"/><rect x="18.57" y="16.55" width="0.73" height="2.52" transform="translate(-7.04 18.84) rotate(-45.51)"/><rect x="17.56" y="17.71" width="0.73" height="2.24" transform="translate(-7.73 23.07) rotate(-55.8)"/><rect x="17.15" y="18.78" width="0.73" height="2.89" transform="translate(-8.07 28.04) rotate(-66.09)"/><rect x="15.8" y="20.8" width="0.73" height="1.04" transform="translate(-8.36 32.01) rotate(-76.38)"/><rect x="15.97" y="21.97" width="0.73" height="1.83" transform="translate(-7.46 37.86) rotate(-86.68)"/><rect x="15.46" y="24" width="1.89" height="0.73" transform="translate(-2.83 2.16) rotate(-6.95)"/><polygon points="19.48 25.35 19.26 24.65 15.71 25.74 15.92 26.44 19.48 25.35"/><rect x="16.32" y="26.74" width="2.2" height="0.73" transform="translate(-10.57 11.13) rotate(-27.56)"/><rect x="17.11" y="28" width="2.08" height="0.73" transform="translate(-13.58 17.09) rotate(-37.81)"/><rect x="18.1" y="29.04" width="2.15" height="0.73" transform="translate(-15.52 24.04) rotate(-48.11)"/><rect x="19.06" y="29.55" width="3.01" height="0.73" transform="translate(-15.69 31.75) rotate(-58.39)"/><rect x="20.53" y="30.51" width="2.27" height="0.73" transform="translate(-14.98 39.82) rotate(-68.67)"/><rect x="21.83" y="30.81" width="2.47" height="0.73" transform="translate(-11.95 47.85) rotate(-78.95)"/><rect x="23.05" y="30.75" width="2.89" height="0.73" transform="translate(-6.95 55.2) rotate(-89.25)"/><rect x="25.59" y="30.56" width="0.73" height="1.89" transform="translate(-4.86 4.73) rotate(-9.53)"/><rect x="26.87" y="29.32" width="0.73" height="2.78" transform="translate(-8.81 11.07) rotate(-19.84)"/><rect x="28.67" y="30.68" width="0.73" height="0.69" transform="matrix(0.87, -0.5, 0.5, 0.87, -11.63, 18.69)"/><polygon points="30.83 30.14 28.21 27.07 27.66 27.55 30.27 30.61 30.83 30.14"/><rect x="30.37" y="27.14" width="0.73" height="2.52" transform="translate(-10.71 34.17) rotate(-50.67)"/><rect x="31.11" y="25.86" width="0.73" height="2.66" transform="translate(-7.58 41.5) rotate(-60.95)"/><polygon points="33.42 25.98 30.15 24.86 29.91 25.55 33.19 26.68 33.42 25.98"/><rect x="32.22" y="23.44" width="0.73" height="2.24" transform="matrix(0.15, -0.99, 0.99, 0.15, 3.49, 53.17)"/><rect x="30.94" y="22.76" width="2.85" height="0.73" transform="translate(-0.71 1.03) rotate(-1.79)"/><rect x="31.02" y="21.35" width="2.6" height="0.73" transform="translate(-3.84 7.27) rotate(-12.11)"/><rect x="30.25" y="20.07" width="2.97" height="0.73" transform="translate(-5.39 13.61) rotate(-22.36)"/><rect x="31.15" y="18.39" width="1.29" height="0.73" transform="translate(-5.1 20.11) rotate(-32.63)"/><polygon points="29.03 19.74 31.58 17.37 31.08 16.84 28.53 19.21 29.03 19.74"/><path d="M54.05,18.84a5.27,5.27,0,0,0,1.77,1.09,6.36,6.36,0,0,0,2.29.4A6.57,6.57,0,0,0,60,20.06a5.37,5.37,0,0,0,1.67-.83V14.93H58v1.3a0.4,0.4,0,0,0,.13.3,0.49,0.49,0,0,0,.35.12h1v1.55a4.32,4.32,0,0,1-.68.22,3.28,3.28,0,0,1-.77.08,3.38,3.38,0,0,1-1.26-.23,2.7,2.7,0,0,1-1-.66,3,3,0,0,1-.63-1.06,4.29,4.29,0,0,1-.22-1.44,4.14,4.14,0,0,1,.2-1.33,3,3,0,0,1,.58-1,2.56,2.56,0,0,1,.91-0.66,2.94,2.94,0,0,1,1.2-.23,5.45,5.45,0,0,1,.64,0A3.34,3.34,0,0,1,59,12a3.23,3.23,0,0,1,.51.2l0.53,0.29a0.73,0.73,0,0,0,.55.13,0.66,0.66,0,0,0,.42-0.3l0.69-1a4.66,4.66,0,0,0-.7-0.55,4.77,4.77,0,0,0-.86-0.43,5.85,5.85,0,0,0-1-.29,6.51,6.51,0,0,0-1.2-.1,6.15,6.15,0,0,0-2.23.39A4.91,4.91,0,0,0,54,11.36,4.73,4.73,0,0,0,52.9,13a5.65,5.65,0,0,0-.38,2.1,5.34,5.34,0,0,0,.4,2.08A4.79,4.79,0,0,0,54.05,18.84Z"/><polygon points="72.87 18.32 69.09 18.32 69.09 10.01 66.72 10.01 66.72 20.21 72.87 20.21 72.87 18.32"/><path d="M87,17.17a5.72,5.72,0,0,0,0-4.11,4.93,4.93,0,0,0-1.07-1.65,5,5,0,0,0-1.67-1.1A5.64,5.64,0,0,0,82,9.9a5.7,5.7,0,0,0-2.17.4,5,5,0,0,0-1.68,1.1A4.9,4.9,0,0,0,77.12,13a5.74,5.74,0,0,0,0,4.12,4.87,4.87,0,0,0,2.75,2.76,6.09,6.09,0,0,0,4.34,0A4.87,4.87,0,0,0,87,17.17Zm-2.24-.69a2.87,2.87,0,0,1-.56,1,2.4,2.4,0,0,1-.9.64,3.14,3.14,0,0,1-1.21.22,3.19,3.19,0,0,1-1.22-.22,2.39,2.39,0,0,1-.9-0.64,2.87,2.87,0,0,1-.56-1,4.84,4.84,0,0,1,0-2.73,2.88,2.88,0,0,1,.56-1,2.43,2.43,0,0,1,.9-0.64A3.14,3.14,0,0,1,82,11.85a3.09,3.09,0,0,1,1.21.22,2.43,2.43,0,0,1,.9.64,2.88,2.88,0,0,1,.56,1A4.84,4.84,0,0,1,84.71,16.48Z"/><path d="M98.15,14.93a3.52,3.52,0,0,0,.79-0.4A2.29,2.29,0,0,0,99.48,14a1.94,1.94,0,0,0,.31-0.6,2.24,2.24,0,0,0,.1-0.66,2.94,2.94,0,0,0-.21-1.14A2.1,2.1,0,0,0,99,10.76a3.43,3.43,0,0,0-1.21-.55A7.13,7.13,0,0,0,96,10H92.22v10.2H96.3A5.22,5.22,0,0,0,97.93,20a3.5,3.5,0,0,0,1.2-.65,2.77,2.77,0,0,0,.74-1,2.92,2.92,0,0,0,.25-1.21,2.06,2.06,0,0,0-.48-1.41A2.81,2.81,0,0,0,98.15,14.93Zm-3.56-3.15H96a3.3,3.3,0,0,1,.69.06,1.18,1.18,0,0,1,.48.21,0.86,0.86,0,0,1,.28.39,1.74,1.74,0,0,1,.09.61,1.44,1.44,0,0,1-.12.62,0.9,0.9,0,0,1-.34.38,1.47,1.47,0,0,1-.54.2,4.08,4.08,0,0,1-.71.06H94.59V11.78Zm3.13,5.79a1,1,0,0,1-.23.43,1.21,1.21,0,0,1-.47.31,2.1,2.1,0,0,1-.77.12H94.59V15.88h1.65A2.77,2.77,0,0,1,97,16a1.24,1.24,0,0,1,.47.24,0.84,0.84,0,0,1,.25.38,1.62,1.62,0,0,1,.07.5A1.88,1.88,0,0,1,97.72,17.57Z"/><path d="M110.12,10H107.7l-3.95,10.2h1.85a0.77,0.77,0,0,0,.49-0.16,0.85,0.85,0,0,0,.28-0.35l0.6-1.78h3.88l0.6,1.78a0.91,0.91,0,0,0,.29.37,0.8,0.8,0,0,0,.5.14h1.83Zm-2.6,6.3,0.94-2.78c0.07-.18.14-0.39,0.22-0.63s0.15-.51.23-0.79q0.12,0.42.24,0.78t0.22,0.63l0.94,2.79h-2.79Z"/><polygon points="124.52 18.32 120.74 18.32 120.74 10.01 118.38 10.01 118.38 20.21 124.52 20.21 124.52 18.32"/><path d="M62.26,29.29a4.84,4.84,0,0,0-.77-1,4.63,4.63,0,0,0-1-.79,5.06,5.06,0,0,0-1.25-.5,5.72,5.72,0,0,0-1.45-.18,5.46,5.46,0,0,0-2.09.39,4.77,4.77,0,0,0-1.62,1.08,4.85,4.85,0,0,0-1,1.64A5.91,5.91,0,0,0,53,34a4.86,4.86,0,0,0,1,1.64,4.76,4.76,0,0,0,1.62,1.08,5.85,5.85,0,0,0,4.19,0,4.72,4.72,0,0,0,1.62-1.08,4.85,4.85,0,0,0,1-1.64,5.66,5.66,0,0,0,.37-2.06,5.94,5.94,0,0,0-.16-1.41A5.1,5.1,0,0,0,62.26,29.29Zm-1.51,4.15a3.16,3.16,0,0,1-.64,1.12,2.74,2.74,0,0,1-1,.7,3.75,3.75,0,0,1-2.67,0,2.78,2.78,0,0,1-1-.7,3.13,3.13,0,0,1-.64-1.12,5.11,5.11,0,0,1,0-3,3.17,3.17,0,0,1,.64-1.12,2.76,2.76,0,0,1,1-.71,3.75,3.75,0,0,1,2.67,0,2.73,2.73,0,0,1,1,.71,3.2,3.2,0,0,1,.64,1.12A5.1,5.1,0,0,1,60.75,33.44Z"/><path d="M72.23,27.79A3.4,3.4,0,0,0,71,27.13a5.79,5.79,0,0,0-1.76-.24H66V37h1.88V33.45h1.41A5.5,5.5,0,0,0,71,33.2a3.42,3.42,0,0,0,1.23-.69,2.8,2.8,0,0,0,.73-1.05,3.59,3.59,0,0,0,.25-1.35,3.52,3.52,0,0,0-.23-1.3A2.64,2.64,0,0,0,72.23,27.79Zm-1.06,3.1a1.51,1.51,0,0,1-.38.59,1.72,1.72,0,0,1-.64.37,2.85,2.85,0,0,1-.9.13H67.84V28.34h1.41a3,3,0,0,1,.91.12,1.67,1.67,0,0,1,.64.35,1.45,1.45,0,0,1,.38.56,2,2,0,0,1,.13.74A2.25,2.25,0,0,1,71.18,30.89Z"/><polygon points="76.03 37.01 82.41 37.01 82.41 35.51 77.92 35.51 77.92 32.64 81.46 32.64 81.46 31.19 77.92 31.19 77.92 28.39 82.41 28.39 82.41 26.89 76.03 26.89 76.03 37.01"/><path d="M92.35,33c0,0.14,0,.28,0,0.44s0,0.32,0,.48l-5.31-6.78L87,27l-0.13-.09-0.15,0H85.48V37h1.66V30.79c0-.12,0-0.26,0-0.4s0-.29,0-0.44l5.28,6.74a0.88,0.88,0,0,0,.29.25A0.85,0.85,0,0,0,93,37h1V26.89H92.35V33Z"/><path d="M110,28.31a4.75,4.75,0,0,0-1.62-1,5.65,5.65,0,0,0-2.1-.37h-3.86V37h3.86a5.69,5.69,0,0,0,2.1-.37,4.66,4.66,0,0,0,1.62-1,4.71,4.71,0,0,0,1-1.6,5.81,5.81,0,0,0,0-4.09A4.67,4.67,0,0,0,110,28.31Zm-0.74,5.14a3.09,3.09,0,0,1-.64,1.12,2.77,2.77,0,0,1-1,.7,3.44,3.44,0,0,1-1.33.25h-2V28.39h2a3.46,3.46,0,0,1,1.33.25,2.77,2.77,0,0,1,1,.7,3.09,3.09,0,0,1,.64,1.12A5.17,5.17,0,0,1,109.3,33.44Z"/><path d="M117,26.89L113,37h1.47a0.6,0.6,0,0,0,.4-0.13,0.67,0.67,0,0,0,.22-0.29l0.76-2.07H120l0.76,2.07a0.77,0.77,0,0,0,.23.3,0.62,0.62,0,0,0,.4.12h1.46l-4-10.12H117Zm-0.66,6.3,1.23-3.35q0.09-.23.19-0.54t0.19-.67q0.1,0.36.2,0.66c0.06,0.2.13,0.38,0.19,0.53l1.23,3.37h-3.23Z"/><polygon points="123.42 28.43 126.47 28.43 126.47 37.01 128.35 37.01 128.35 28.43 131.4 28.43 131.4 26.89 123.42 26.89 123.42 28.43"/><path d="M135.93,26.89l-4,10.12h1.47a0.6,0.6,0,0,0,.4-0.13,0.67,0.67,0,0,0,.22-0.29l0.76-2.07H139l0.76,2.07a0.76,0.76,0,0,0,.23.3,0.63,0.63,0,0,0,.4.12h1.46l-4-10.12h-1.92Zm-0.66,6.3,1.23-3.35c0.06-.15.12-0.33,0.19-0.54s0.13-.43.19-0.67q0.1,0.36.2,0.66c0.07,0.2.13,0.38,0.19,0.53l1.23,3.37h-3.23Z"/><rect x="148.6" y="26.89" width="1.89" height="10.12"/><path d="M161,33c0,0.14,0,.28,0,0.44s0,0.32,0,.48l-5.31-6.78L155.63,27l-0.13-.09-0.15,0h-1.19V37h1.66V30.79c0-.12,0-0.26,0-0.4s0-.29,0-0.44l5.28,6.74a0.88,0.88,0,0,0,.29.25,0.85,0.85,0,0,0,.37.07h1V26.89H161V33Z"/><path d="M173.91,28.31a4.75,4.75,0,0,0-1.62-1,5.65,5.65,0,0,0-2.1-.37h-3.86V37h3.86a5.69,5.69,0,0,0,2.1-.37A4.59,4.59,0,0,0,175,34a5.81,5.81,0,0,0,0-4.09A4.64,4.64,0,0,0,173.91,28.31Zm-0.74,5.14a3.11,3.11,0,0,1-.64,1.12,2.78,2.78,0,0,1-1,.7,3.44,3.44,0,0,1-1.33.25h-2V28.39h2a3.46,3.46,0,0,1,1.33.25,2.78,2.78,0,0,1,1,.7,3.11,3.11,0,0,1,.64,1.12A5.17,5.17,0,0,1,173.18,33.44Z"/><polygon points="178.39 37.01 184.77 37.01 184.77 35.51 180.28 35.51 180.28 32.64 183.82 32.64 183.82 31.19 180.28 31.19 180.28 28.39 184.77 28.39 184.77 26.89 178.39 26.89 178.39 37.01"/><path d="M192.72,31.73L196,26.89h-1.8a0.4,0.4,0,0,0-.23.06,0.59,0.59,0,0,0-.17.2l-2.11,3.32-0.1.18-0.08.17-2.3-3.71a0.53,0.53,0,0,0-.17-0.17,0.57,0.57,0,0,0-.28-0.05h-1.88l3.23,4.91L186.73,37h1.76a0.4,0.4,0,0,0,.28-0.1,1.41,1.41,0,0,0,.19-0.22l2.25-3.58a1.33,1.33,0,0,0,.13-0.29l2.35,3.88a0.79,0.79,0,0,0,.19.22,0.47,0.47,0,0,0,.31.1h1.88Z"/></svg>
